<svg xmlns="http://www.w3.org/2000/svg" xmlns:xlink="http://www.w3.org/1999/xlink" viewBox="0 0 528.35 123.91"><defs><style>.cls-1{fill:none;}.cls-2{isolation:isolate;}.cls-3{fill:#323e4f;}.cls-4{fill:#3b97d3;}.cls-5{fill:#f0c419;}.cls-6{fill:#e57e25;}.cls-7{fill:#14a085;}.cls-8{clip-path:url(#clip-path);}.cls-9{opacity:0.1;mix-blend-mode:multiply;}.cls-10{clip-path:url(#clip-path-2);}.cls-11{clip-path:url(#clip-path-3);}.cls-12{fill:url(#radial-gradient);}.cls-13{clip-path:url(#clip-path-4);}.cls-14{clip-path:url(#clip-path-7);}.cls-15{clip-path:url(#clip-path-8);}.cls-16{clip-path:url(#clip-path-9);}.cls-17{fill:url(#radial-gradient-3);}.cls-18{clip-path:url(#clip-path-10);}</style><clipPath id="clip-path" transform="translate(-59.43 -79.08)"><path class="cls-1" d="M500.27,137.28l3.35-3.35,3.69,3.59A35.18,35.18,0,0,1,538.79,106l3.59-3.69L539,99l-.24,0a42.21,42.21,0,0,0-38.52,38.3"/></clipPath><clipPath id="clip-path-2" transform="translate(-59.43 -79.08)"><rect class="cls-1" x="507.12" y="99" width="70.35" height="70.35"/></clipPath><clipPath id="clip-path-3" transform="translate(-59.43 -79.08)"><path class="cls-1" d="M577.46,134.17A35.17,35.17,0,1,1,542.29,99a35.18,35.18,0,0,1,35.17,35.17"/></clipPath><radialGradient id="radial-gradient" cx="-217.64" cy="257.14" r="1.65" gradientTransform="matrix(21.33, 0, 0, -21.33, 5125.98, 5540.89)" gradientUnits="userSpaceOnUse"><stop offset="0" stop-color="#fff"/><stop offset="1" stop-color="#231f20"/></radialGradient><clipPath id="clip-path-4" transform="translate(-59.43 -79.08)"><path class="cls-1" d="M549.42,102.35l-3.6,3.69a35.18,35.18,0,0,1,31.48,31.48l3.69,3.59,3.35-3.35,0-.24A42.22,42.22,0,0,0,546.07,99Z"/></clipPath><clipPath id="clip-path-7" transform="translate(-59.43 -79.08)"><path class="cls-1" d="M545.82,176l-3.51,3.69,3.34,3.34.17,0h.07a42.2,42.2,0,0,0,38.45-38.29L581,148.15l-3.69-3.6A35.19,35.19,0,0,1,545.82,176"/></clipPath><clipPath id="clip-path-8" transform="translate(-59.43 -79.08)"><rect class="cls-1" x="507.12" y="112.75" width="70.35" height="70.35"/></clipPath><clipPath id="clip-path-9" transform="translate(-59.43 -79.08)"><path class="cls-1" d="M577.46,147.93a35.17,35.17,0,1,1-35.17-35.18,35.17,35.17,0,0,1,35.17,35.18"/></clipPath><radialGradient id="radial-gradient-3" cx="-217.64" cy="256.88" r="1.65" gradientTransform="matrix(21.33, 0, 0, -21.33, 5125.98, 5549.23)" xlink:href="#radial-gradient"/><clipPath id="clip-path-10" transform="translate(-59.43 -79.08)"><path class="cls-1" d="M500.27,144.46a.28.28,0,0,0,0,.09h0a.25.25,0,0,1,0,.08.17.17,0,0,1,0,.07h0a42.19,42.19,0,0,0,38.28,38.37l-3.1-3.34,3.35-3.69a35.19,35.19,0,0,1-31.48-31.49l-3.69-3.44Z"/></clipPath></defs><title>nv_logo_sobtic-vector</title><g class="cls-2"><g id="Layer_1" data-name="Layer 1"><path class="cls-3" d="M68.68,176.83s8.94,8.94,22.17,8.94c5.75,0,10.69-2.56,10.69-7.34,0-12.12-39.56-10.53-39.56-36.69,0-15.15,13.56-23.92,31.11-23.92,18.34,0,27.27,9.25,27.27,9.25l-7.5,15a30.86,30.86,0,0,0-19.93-7c-5.27,0-10.37,2.24-10.37,7.34,0,11.49,39.56,10.05,39.56,36.21,0,13.56-11.81,24.4-31.11,24.4-20.25,0-31.58-12-31.58-12Z" transform="translate(-59.43 -79.08)"/><path class="cls-3" d="M177,117.82c24.88,0,44.82,17.7,44.82,42.59,0,25-19.94,42.58-44.66,42.58-24.88,0-44.82-17.54-44.82-42.58C132.32,135.52,152.26,117.82,177,117.82Zm.16,68c13.08,0,24.09-10.21,24.09-25.36,0-15-11-25.37-24.09-25.37-13.24,0-24.24,10.37-24.24,25.37C152.9,175.56,163.9,185.77,177.14,185.77Z" transform="translate(-59.43 -79.08)"/><path class="cls-3" d="M238.07,87.83h20.26v34.93a68.59,68.59,0,0,1-.32,6.86h.32s7.17-11.8,24.4-11.8c22,0,36,17.38,36,42.59,0,25.83-15.8,42.58-37.33,42.58-16.91,0-24.24-12.12-24.24-12.12h-.32a46.65,46.65,0,0,1,.32,5.58v4.63H238.07Zm39.87,98.1c11.17,0,20.42-9.1,20.42-25.21,0-15.47-8.3-25.52-20.26-25.52-10.52,0-20.41,7.66-20.41,25.68C257.69,173.48,264.39,185.93,277.94,185.93Z" transform="translate(-59.43 -79.08)"/><path class="cls-3" d="M369.45,91.69H326.33V81.13h97.83V91.69h-43V201H369.45Z" transform="translate(-59.43 -79.08)"/><path class="cls-3" d="M442.74,81.13H454.5V201H442.74Z" transform="translate(-59.43 -79.08)"/><path class="cls-3" d="M541.42,79.08c28.63,0,43.12,15.51,43.12,15.51l-6.31,8.69A56.32,56.32,0,0,0,541.76,90c-28.12,0-48.23,21.82-48.23,50.11,0,28.63,20.11,52,48.57,52a56,56,0,0,0,38.86-16l6.82,8.35S571.42,203,541.93,203c-35.45,0-60.68-27.78-60.68-62.72C481.25,105.5,507.16,79.08,541.42,79.08Z" transform="translate(-59.43 -79.08)"/><path class="cls-4" d="M546.07,99l3.34,3.35L545.82,106a35.18,35.18,0,0,1,31.48,31.48l3.69,3.59,3.35-3.35,0-.24A42.22,42.22,0,0,0,546.07,99" transform="translate(-59.43 -79.08)"/><path class="cls-5" d="M538.79,176a35.19,35.19,0,0,1-31.48-31.49l-3.69-3.44-3.35,3.35a.28.28,0,0,0,0,.09h0v.15h0a42.2,42.2,0,0,0,38.28,38.37l-3.09-3.34Z" transform="translate(-59.43 -79.08)"/><path class="cls-6" d="M539,99l-.24,0a42.21,42.21,0,0,0-38.52,38.3l3.35-3.35,3.69,3.59A35.18,35.18,0,0,1,538.79,106l3.59-3.69Z" transform="translate(-59.43 -79.08)"/><path class="cls-7" d="M584.34,144.8,581,148.15l-3.7-3.6A35.18,35.18,0,0,1,545.82,176l-3.51,3.69,3.34,3.34.17,0h.07a42.2,42.2,0,0,0,38.45-38.29" transform="translate(-59.43 -79.08)"/><g class="cls-8"><g class="cls-9"><g class="cls-10"><g class="cls-11"><rect class="cls-12" x="447.69" y="19.92" width="70.35" height="70.35"/></g></g></g></g><g class="cls-13"><g class="cls-9"><g class="cls-10"><g class="cls-11"><rect class="cls-12" x="447.69" y="19.92" width="70.35" height="70.35"/></g></g></g></g><g class="cls-14"><g class="cls-9"><g class="cls-15"><g class="cls-16"><rect class="cls-17" x="447.69" y="33.67" width="70.35" height="70.35"/></g></g></g></g><g class="cls-18"><g class="cls-9"><g class="cls-15"><g class="cls-16"><rect class="cls-17" x="447.69" y="33.67" width="70.35" height="70.35"/></g></g></g></g></g></g></svg>